<?xml version="1.0" standalone="no"?>
<!DOCTYPE svg PUBLIC "-//W3C//DTD SVG 20010904//EN"
 "http://www.w3.org/TR/2001/REC-SVG-20010904/DTD/svg10.dtd">
<svg version="1.0" xmlns="http://www.w3.org/2000/svg"
 width="22" height="21.999" viewBox="0 0 820.000000 680.000000"
 preserveAspectRatio="xMidYMid meet">

<g transform="translate(0.000000,680.000000) scale(0.100000,-0.100000)"
fill="#000000" stroke="none">
<path d="M5200 6393 c-8 -2 -584 -82 -1280 -178 -1362 -189 -1402 -194 -1620
-225 -1144 -157 -1512 -211 -1557 -228 -129 -49 -229 -145 -299 -287 -69 -141
-88 -242 -87 -460 1 -338 70 -585 213 -762 27 -34 47 -64 42 -66 -5 -4 -143
-46 -334 -103 -23 -7 -50 -68 -42 -99 10 -40 79 -91 177 -132 177 -73 252
-202 277 -479 11 -113 0 -339 -17 -354 -4 -4 -64 -24 -133 -45 -340 -104 -490
-196 -408 -249 13 -8 59 -22 103 -31 44 -10 83 -19 87 -22 4 -2 -12 -28 -37
-58 -63 -77 -90 -128 -124 -230 -69 -209 -69 -501 0 -774 53 -213 170 -395
296 -464 27 -14 225 -83 439 -152 214 -70 477 -155 584 -190 107 -35 371 -120
585 -190 215 -69 478 -155 585 -190 567 -185 789 -255 809 -255 12 0 300 67
639 149 339 83 682 166 762 185 80 19 370 89 645 156 1094 265 1783 432 2045
495 247 60 310 81 310 106 0 4 -12 21 -26 38 -41 49 -196 116 -441 191 -56 17
-104 37 -107 45 -14 36 -18 276 -7 375 31 259 109 383 290 455 105 42 161 92
161 145 -1 53 -25 74 -122 104 l-87 26 78 78 c122 121 194 282 235 522 56 334
11 650 -118 825 -12 17 -26 35 -29 42 -5 8 51 25 185 58 234 56 261 74 201
132 -43 40 -193 106 -376 165 l-166 53 -8 45 c-4 25 -7 113 -6 195 1 334 88
522 274 592 89 33 154 78 173 118 15 31 15 38 2 70 -8 19 -25 39 -38 45 -13 5
-324 100 -693 211 -368 110 -969 290 -1335 400 -780 234 -682 206 -700 202z
m-4205 -969 c60 -19 295 -96 520 -169 226 -74 804 -262 1285 -419 481 -156
887 -289 903 -295 l27 -11 -1 -107 c-1 -199 -25 -833 -32 -839 -6 -6 -266 65
-1607 440 -245 68 -616 172 -824 230 -209 58 -387 106 -396 106 -25 0 -105 56
-133 93 -100 131 -153 402 -129 654 18 181 68 289 154 332 60 29 105 26 233
-15z m6439 -232 c-34 -85 -53 -165 -66 -277 -10 -94 -6 -304 8 -420 l6 -50
-693 -172 c-382 -95 -1173 -292 -1759 -437 -586 -145 -1066 -263 -1068 -262
-4 5 18 722 26 846 l7 104 85 17 c47 10 272 56 500 103 228 47 613 125 855
175 242 50 584 120 760 156 176 36 507 104 735 151 228 47 453 93 500 104 47
10 95 18 106 19 l22 1 -24 -58z m17 -1252 c81 -42 131 -152 149 -329 13 -125
0 -321 -30 -436 -39 -152 -131 -281 -219 -305 -169 -46 -470 -129 -631 -174
-107 -30 -404 -113 -660 -185 -256 -71 -707 -198 -1004 -281 -296 -83 -541
-148 -545 -145 -8 9 -39 938 -31 947 3 4 329 113 725 242 775 252 844 274
1600 521 542 177 569 184 646 145z m-6636 -194 c17 -3 107 -21 200 -40 94 -20
337 -69 540 -111 393 -81 1297 -266 1655 -340 118 -25 382 -78 585 -120 204
-42 405 -83 448 -92 l77 -16 0 -51 c0 -28 7 -240 15 -470 8 -231 13 -421 10
-424 -5 -5 -124 24 -2083 511 -782 195 -1425 357 -1428 360 -4 3 -1 67 6 142
24 256 -1 451 -85 649 -7 15 -4 17 11 13 10 -3 33 -8 49 -11z m140 -1380 c801
-260 2043 -665 2275 -741 l255 -84 -3 -198 c-3 -209 -21 -755 -25 -759 -1 -1
-81 20 -177 47 -96 27 -434 122 -750 210 -316 89 -636 178 -710 199 -237 67
-738 206 -970 270 -124 34 -242 69 -263 78 -83 34 -162 162 -198 319 -28 126
-36 361 -16 477 32 184 112 282 232 285 17 1 174 -46 350 -103z m6252 -123
c-3 -10 -17 -47 -30 -83 -46 -120 -61 -250 -53 -459 3 -102 7 -199 9 -216 l2
-30 -595 -149 c-1831 -457 -2915 -724 -2919 -721 -6 7 20 861 28 909 l6 39
355 74 c368 75 400 80 462 63 34 -10 59 -4 255 59 183 58 289 84 658 160 1093
224 1491 306 1635 336 187 40 194 41 187 18z" fill="#fff"/>
</g>
</svg>
