<?xml version="1.0" standalone="no"?>
<!DOCTYPE svg PUBLIC "-//W3C//DTD SVG 20010904//EN"
 "http://www.w3.org/TR/2001/REC-SVG-20010904/DTD/svg10.dtd">
<svg version="1.0" xmlns="http://www.w3.org/2000/svg"
 width="981.000000pt" height="758.000000pt" viewBox="0 0 981.000000 758.000000"
 preserveAspectRatio="xMidYMid meet">

<g transform="translate(0.000000,758.000000) scale(0.100000,-0.100000)"
fill="#000000" stroke="none">
<path d="M590 7560 c-129 -4 -254 -12 -278 -18 -24 -5 -68 -25 -99 -44 -106
-64 -174 -165 -196 -296 -9 -50 -12 -730 -10 -2727 1 -2599 6 -3113 33 -3208
13 -43 115 -154 168 -181 21 -11 77 -20 155 -27 110 -9 3458 -27 5275 -28
l702 -1 0 205 0 205 -2965 0 -2965 0 0 1888 c0 1038 3 2322 7 2853 l6 967 711
6 c391 3 2411 7 4489 9 l3777 3 0 -2863 0 -2863 -305 0 -305 0 0 -205 0 -205
108 0 c59 0 215 5 347 10 257 10 328 22 393 65 49 32 122 127 134 173 5 21 13
195 19 387 14 462 5 5500 -9 5602 -6 39 -17 84 -26 100 -18 37 -110 129 -165
167 l-41 29 -4363 2 c-2399 2 -4468 0 -4597 -5z" fill="#fff"/>
<path d="M1222 6348 l3 -203 3680 0 3680 0 3 203 2 202 -3685 0 -3685 0 2
-202z" fill="#fff"/>
<path d="M1227 5323 c-4 -3 -7 -96 -7 -205 l0 -198 3685 0 3685 0 -2 203 -3
202 -3676 3 c-2022 1 -3679 -1 -3682 -5z" fill="#fff"/>
<path d="M7461 4283 c-30 -11 -74 -45 -146 -114 l-102 -99 -94 10 c-228 24
-301 10 -374 -72 -49 -54 -73 -110 -96 -226 -11 -53 -26 -106 -34 -118 -8 -13
-58 -48 -111 -79 -173 -102 -217 -159 -218 -280 0 -88 21 -158 78 -258 l44
-78 -54 -113 c-86 -180 -94 -280 -30 -373 31 -45 105 -101 229 -175 62 -36 74
-59 97 -179 51 -266 147 -325 465 -288 l94 11 101 -93 c132 -124 166 -142 245
-134 112 11 146 29 257 131 103 94 103 94 148 90 25 -3 108 -11 185 -17 l139
-12 64 69 c83 90 100 126 122 251 11 58 26 115 34 128 8 12 54 43 103 68 109
57 161 100 197 167 57 105 45 208 -42 360 l-50 86 54 108 c59 121 79 196 70
269 -11 101 -80 177 -229 254 -49 25 -95 56 -103 68 -8 12 -23 72 -33 132 -20
119 -43 173 -98 234 -60 66 -76 71 -267 76 -201 6 -217 11 -320 102 -123 108
-212 134 -325 94z m179 -518 c109 -84 137 -94 282 -101 67 -4 131 -11 140 -15
10 -5 21 -31 27 -61 26 -125 95 -225 202 -293 37 -24 70 -53 74 -64 3 -11 -7
-64 -24 -122 -39 -128 -39 -175 -1 -292 17 -52 30 -103 30 -115 0 -14 -21 -35
-64 -66 -107 -76 -172 -170 -212 -306 l-22 -75 -128 -1 c-145 -1 -159 -5 -310
-104 -42 -28 -83 -50 -90 -50 -8 0 -35 21 -62 46 -88 86 -196 119 -352 107
l-87 -6 -22 89 c-41 164 -102 245 -228 306 -34 16 -64 36 -66 43 -3 7 9 41 26
76 29 59 32 74 35 179 3 99 1 123 -18 175 -39 107 -38 110 16 147 78 52 177
158 207 219 15 30 30 79 34 108 4 33 12 55 22 61 10 5 80 14 156 20 166 13
195 24 279 109 37 37 64 57 70 52 6 -5 45 -34 86 -66z" fill="#fff"/>
<path d="M1220 3895 l0 -205 2150 0 2150 0 0 205 0 205 -2150 0 -2150 0 0
-205z" fill="#fff"/>
<path d="M1222 2668 l3 -203 2148 -3 2147 -2 0 205 0 205 -2150 0 -2150 0 2
-202z" fill="#fff"/>
<path d="M6592 836 c3 -442 8 -808 12 -815 9 -14 39 9 406 304 297 239 538
425 550 425 18 0 316 -233 735 -574 99 -80 182 -146 186 -146 18 0 21 112 26
833 l5 777 -206 0 -206 0 -2 -391 -3 -391 -170 138 c-239 195 -350 274 -382
274 -5 0 -123 -92 -263 -205 -140 -113 -258 -205 -262 -205 -5 0 -8 60 -8 133
0 74 -3 249 -7 390 l-6 257 -205 0 -205 0 5 -804z" fill="#fff"/>
</g>
</svg>
